{
    "asset" : {
        "generator" : "Khronos glTF Blender I/O v1.7.33",
        "version" : "2.0"
    },
    "scene" : 0,
    "scenes" : [
        {
            "name" : "Scene",
            "nodes" : [
                0
            ]
        }
    ],
    "nodes" : [
        {
            "mesh" : 0,
            "name" : "Tree-03-1",
            "translation" : [
                23.39203643798828,
                0,
                2.600653648376465
            ]
        }
    ],
    "materials" : [
        {
            "doubleSided" : true,
            "name" : "trunk-01",
            "pbrMetallicRoughness" : {
                "baseColorTexture" : {
                    "index" : 0
                },
                "metallicFactor" : 0,
                "roughnessFactor" : 0.3431818187236786
            }
        },
        {
            "alphaMode" : "BLEND",
            "doubleSided" : true,
            "name" : "branch-01",
            "pbrMetallicRoughness" : {
                "baseColorTexture" : {
                    "index" : 1
                },
                "metallicFactor" : 0,
                "roughnessFactor" : 0.5
            }
        },
        {
            "alphaCutoff" : 0.5,
            "alphaMode" : "MASK",
            "doubleSided" : true,
            "name" : "branch-02",
            "pbrMetallicRoughness" : {
                "baseColorTexture" : {
                    "index" : 2
                },
                "metallicFactor" : 0,
                "roughnessFactor" : 0.5
            }
        }
    ],
    "meshes" : [
        {
            "name" : "BezierCurve.028",
            "primitives" : [
                {
                    "attributes" : {
                        "POSITION" : 0,
                        "NORMAL" : 1,
                        "TEXCOORD_0" : 2
                    },
                    "indices" : 3,
                    "material" : 0
                },
                {
                    "attributes" : {
                        "POSITION" : 4,
                        "NORMAL" : 5,
                        "TEXCOORD_0" : 6
                    },
                    "indices" : 7,
                    "material" : 1
                },
                {
                    "attributes" : {
                        "POSITION" : 8,
                        "NORMAL" : 9,
                        "TEXCOORD_0" : 10
                    },
                    "indices" : 11,
                    "material" : 2
                }
            ]
        }
    ],
    "textures" : [
        {
            "sampler" : 0,
            "source" : 0
        },
        {
            "sampler" : 0,
            "source" : 1
        },
        {
            "sampler" : 0,
            "source" : 2
        }
    ],
    "images" : [
        {
            "bufferView" : 4,
            "mimeType" : "image/jpeg",
            "name" : "bark"
        },
        {
            "bufferView" : 9,
            "mimeType" : "image/png",
            "name" : "branch-2-01"
        },
        {
            "bufferView" : 14,
            "mimeType" : "image/png",
            "name" : "branch-2-02"
        }
    ],
    "accessors" : [
        {
            "bufferView" : 0,
            "componentType" : 5126,
            "count" : 293,
            "max" : [
                0.5629196166992188,
                7.866107940673828,
                0.9973721504211426
            ],
            "min" : [
                -0.9602394104003906,
                0,
                -0.6806681156158447
            ],
            "type" : "VEC3"
        },
        {
            "bufferView" : 1,
            "componentType" : 5126,
            "count" : 293,
            "type" : "VEC3"
        },
        {
            "bufferView" : 2,
            "componentType" : 5126,
            "count" : 293,
            "type" : "VEC2"
        },
        {
            "bufferView" : 3,
            "componentType" : 5123,
            "count" : 666,
            "type" : "SCALAR"
        },
        {
            "bufferView" : 5,
            "componentType" : 5126,
            "count" : 217,
            "max" : [
                2.5667781829833984,
                8.63774299621582,
                2.3342103958129883
            ],
            "min" : [
                -3.0207881927490234,
                0.8532743453979492,
                -2.7317111492156982
            ],
            "type" : "VEC3"
        },
        {
            "bufferView" : 6,
            "componentType" : 5126,
            "count" : 217,
            "type" : "VEC3"
        },
        {
            "bufferView" : 7,
            "componentType" : 5126,
            "count" : 217,
            "type" : "VEC2"
        },
        {
            "bufferView" : 8,
            "componentType" : 5123,
            "count" : 552,
            "type" : "SCALAR"
        },
        {
            "bufferView" : 10,
            "componentType" : 5126,
            "count" : 301,
            "max" : [
                2.9747047424316406,
                8.77813720703125,
                2.98984432220459
            ],
            "min" : [
                -2.328693389892578,
                1.1863832473754883,
                -2.7433524131774902
            ],
            "type" : "VEC3"
        },
        {
            "bufferView" : 11,
            "componentType" : 5126,
            "count" : 301,
            "type" : "VEC3"
        },
        {
            "bufferView" : 12,
            "componentType" : 5126,
            "count" : 301,
            "type" : "VEC2"
        },
        {
            "bufferView" : 13,
            "componentType" : 5123,
            "count" : 720,
            "type" : "SCALAR"
        }
    ],
    "bufferViews" : [
        {
            "buffer" : 0,
            "byteLength" : 3516,
            "byteOffset" : 0
        },
        {
            "buffer" : 0,
            "byteLength" : 3516,
            "byteOffset" : 3516
        },
        {
            "buffer" : 0,
            "byteLength" : 2344,
            "byteOffset" : 7032
        },
        {
            "buffer" : 0,
            "byteLength" : 1332,
            "byteOffset" : 9376
        },
        {
            "buffer" : 0,
            "byteLength" : 232440,
            "byteOffset" : 10708
        },
        {
            "buffer" : 0,
            "byteLength" : 2604,
            "byteOffset" : 243148
        },
        {
            "buffer" : 0,
            "byteLength" : 2604,
            "byteOffset" : 245752
        },
        {
            "buffer" : 0,
            "byteLength" : 1736,
            "byteOffset" : 248356
        },
        {
            "buffer" : 0,
            "byteLength" : 1104,
            "byteOffset" : 250092
        },
        {
            "buffer" : 0,
            "byteLength" : 768007,
            "byteOffset" : 251196
        },
        {
            "buffer" : 0,
            "byteLength" : 3612,
            "byteOffset" : 1019204
        },
        {
            "buffer" : 0,
            "byteLength" : 3612,
            "byteOffset" : 1022816
        },
        {
            "buffer" : 0,
            "byteLength" : 2408,
            "byteOffset" : 1026428
        },
        {
            "buffer" : 0,
            "byteLength" : 1440,
            "byteOffset" : 1028836
        },
        {
            "buffer" : 0,
            "byteLength" : 855059,
            "byteOffset" : 1030276
        }
    ],
    "samplers" : [
        {
            "magFilter" : 9729,
            "minFilter" : 9987
        }
    ],
    "buffers" : [
        {
            "byteLength" : 1885336,
            "uri" : "data:application/octet-stream;base64,"
        }
    ]
}
